<svg xmlns="http://www.w3.org/2000/svg" width="86.125" height="24.125" viewBox="0 0 86.125 24.125"><g fill="#c64467"><path d="M25.03 21.611l-.244-.002-.235-.019c-.172-.021-.335-.058-.487-.112l-.235-.101-.215-.127c-.141-.091-.263-.203-.367-.336-.109-.145-.188-.292-.236-.441-.047-.145-.077-.304-.088-.478 0-.161.02-.32.058-.477l.08-.229.107-.21c.082-.143.171-.271.269-.384.106-.114.223-.219.353-.312.124-.096.254-.177.393-.244l.42-.181.074.035-.028.071-.393.209c-.127.073-.242.158-.347.255l-.158.146-.14.165-.121.166-.102.184c-.125.258-.179.521-.162.79.028.282.128.522.299.721.073.092.171.175.293.254.122.072.245.128.367.165l.202.042.203.032c.141.014.283.015.424.002l.101-.012.111-.013.101-.012.101-.022.198-.048.2-.066c.129-.054.249-.115.36-.186l.171-.112.153-.129c.093-.09.177-.188.251-.296.086-.118.145-.232.177-.339.099-.257.132-.51.097-.755l-.03-.188-.05-.19c-.042-.118-.097-.239-.163-.36l-.104-.171-.124-.163-.064-.076-.072-.077-.033-.036-.032-.036-.037-.036-.036-.037-.17-.162-.16-.173-.15-.176-.151-.186-.137-.194-.128-.193-.182-.334-.203-.001-.226-.02-.234-.029-.12-.019-.11-.028-.119-.032-.111-.032-.229-.078-.211-.104c-.135-.067-.271-.155-.412-.264-.129-.108-.242-.224-.339-.344l-.141-.203-.114-.221c-.073-.139-.127-.295-.163-.47l-.022-.121-.013-.13.002-.252.029-.247.065-.246c.057-.18.139-.335.243-.467.043-.059.103-.095.176-.106.074-.011.142.004.203.047.067.049.107.107.119.176.011.069-.005.137-.048.202-.068.089-.127.197-.177.323l-.052.178-.034.181c-.013.126-.014.254-.003.387.012.131.042.257.09.378.097.252.24.478.429.677.188.188.421.341.697.464l.097.036.105.036.102.029.109.026.212.042.222.023.092.011-.063-.168-.054-.175-.055-.233-.035-.242c-.011-.163-.01-.324.003-.486l.015-.122.024-.121v-.01l.009-.017.001-.026.009-.028.009-.035.029-.117.08-.224.089-.224.056-.108.056-.098.066-.107.064-.099.154-.188.162-.178.189-.156.199-.147c.136-.082.281-.153.435-.213.153-.058.311-.103.471-.131l.24-.021.249.014c.171.021.331.067.477.139.16.073.295.17.404.292.116.12.2.256.255.405.06.145.098.297.117.46l.012.116.004.116v.118l-.005.058-.005.059c-.032.162-.082.312-.151.448-.074.144-.161.272-.261.385-.098.12-.208.229-.328.326-.121.098-.246.188-.375.271-.259.16-.536.291-.832.391-.295.1-.595.17-.895.209l-.079.014-.078.003.15.235.16.217.273.326.15.158.151.149.046.045.018.022.019.023.082.081.082.095.074.095c.098.127.188.262.274.406.079.139.145.289.199.451.06.162.093.324.098.485.018.163.016.331-.003.504l-.052.242-.081.242c-.131.306-.326.573-.586.805-.118.107-.251.202-.398.285-.154.089-.305.159-.453.213l-.235.069-.244.053c-.172.029-.332.042-.479.041zm.378-6.658l-.001.198.017.197c.035.258.114.514.235.766l.018.051.019.04.221-.026.433-.082.424-.117c.296-.101.561-.226.794-.373l.19-.124.172-.134.147-.147.149-.156.129-.175.104-.184c.062-.113.103-.245.123-.395l.009-.099.001-.055v-.054l-.009-.098-.009-.109-.044-.198-.073-.197-.044-.09-.055-.092-.059-.076-.069-.076c-.104-.091-.216-.163-.339-.219-.116-.042-.248-.07-.396-.083-.128-.013-.264-.005-.405.023-.277.064-.526.177-.749.337-.229.172-.413.371-.557.598-.081.125-.143.248-.188.368-.049.113-.09.241-.121.386l-.029.099v.026l-.01.018v.053l-.015.1-.013.099zM27.687 18.466c-.081.023-.156.024-.227.003-.07-.021-.111-.058-.123-.104-.019-.054-.007-.105.033-.156.041-.052.103-.091.189-.121h.011l3.958-1.131.138.005.083.068-.024.107-.116.071-3.922 1.258zm3.973.647c.05.019.067.055.055.108l-.029.081-.027.072-.027.071-.029.071-.131.287-.139.287-.16.276-.176.265-.195.254-.112.126-.121.116c-.093.083-.186.151-.278.204-.111.064-.221.116-.333.15l-.175.044-.05.004-.051.004h-.09199999999999998l-.221-.047-.192-.108-.138-.154-.1-.153-.077-.163-.059-.161-.081-.324c-.041-.217-.067-.429-.078-.639l-.021-.324.006-.314.007-.314.016-.315c.04-.412.088-.828.146-1.248.071-.412.152-.822.245-1.229.091-.408.2-.812.325-1.213.132-.4.283-.794.451-1.183l.145-.291.154-.272.186-.278.214-.259.12-.121.139-.11.074-.05.084-.039.092-.04.092-.03.056-.005.046-.004h.083l.027.001.111.026.101.064.073.081.022.05.022.05.023.09.012.09-.001.162-.004.081-.015.081-.024.162-.034.152-.042.151-.042.152-.048.153-.056.143-.211.588-.23.579-.248.568-.257.569-.14.282-.14.273-.149.28-.15.274-.159.276-.158.27-.172.269-.172.268-.009.015-.009.013-.011.099-.01.099-.024.302-.017.3-.01.302-.002.302.003.148.003.148.013.144.013.144.027.144.026.145.09.252c.024.072.064.136.119.19l.082.055.084.027h.028l.027.001h.064l.064-.014.064-.013.249-.097.241-.16.213-.197.195-.215.186-.24.163-.255.154-.264.079-.136.07-.135.033-.066.033-.067.038-.071.014-.036.014-.035c.024-.055.066-.069.12-.046zm-2.052-2.954l-.072.302-.062.3-.057.296-.048.297.111-.147.102-.147.178-.255.167-.255.163-.26.154-.269c.198-.346.386-.71.56-1.093l.248-.573.22-.574.029-.071.027-.072.048-.144.033-.147.033-.147.028-.148.019-.148c.013-.113.011-.209-.006-.288l-.037-.116-.063-.072-.083-.02h-.045l-.029.009-.026.009c-.062.023-.13.071-.204.143l-.176.214-.15.251-.131.26-.065.133-.065.137-.057.139-.057.138-.206.574-.179.574-.161.584-.141.586zM34.006 16.884l-.01.045.038-.027.152-.084.163-.058c.116-.035.23-.05.34-.043l.093.006.092.015.083.036.083.036.079.049.068.06.056.068.045.076.077.149.049.148.027.157.017.149c.006.202-.005.404-.031.602l-.028.144-.029.145-.038.143-.038.144-.019.066-.019.076-.024.068-.023.066-.052.14-.051.14-.103.228-.112.229.124.001.125-.008.259-.067.259-.119c.172-.094.326-.2.463-.319.16-.138.296-.271.408-.402l.083-.009.009.073-.191.228-.2.22-.227.196-.244.177-.13.08-.139.071-.305.097c-.092.023-.2.035-.322.034l-.11-.011-.103.171-.111.161-.191.241-.199.224c-.148.142-.309.271-.482.383l-.276.142-.305.097-.323.052-.155-.001-.167-.02c-.123-.019-.233-.049-.331-.092-.116-.061-.213-.129-.294-.199-.072-.073-.139-.163-.201-.272l-.072-.153-.055-.153-.053-.313-.013-.158-.004-.157.026-.301.043-.301c.038-.185.092-.381.162-.583.056-.197.131-.387.224-.565l.135-.269.155-.268c.111-.174.235-.338.372-.493l.231-.223.121-.111.139-.094.323-.159.185-.044.093-.018.055.001.019-.009h.027c.074.001.138.027.193.078s.079.113.085.191zm.363 3.427l.088-.121.089-.129h-.018l-.153-.056-.152-.073-.266-.199-.223-.235-.178-.263-.072-.144-.064-.153-.022-.073-.022-.08-.023-.081-.013-.081c-.036-.211-.034-.423.004-.638.04-.222.114-.426.227-.61l.166-.224h-.064l-.055.009-.102.026-.212.097-.199.143-.19.179-.186.2-.158.22c-.093.144-.187.301-.28.474-.081.157-.155.323-.225.502-.069.186-.122.363-.16.53-.051.179-.08.358-.087.539l-.001.257.035.255c.037.175.109.318.219.433l.183.137.239.082.125.015.133.006.267-.025c.172-.036.342-.097.508-.186l.241-.142.213-.178.199-.192.189-.221zm-.294-2.951l-.121.215-.084.232-.057.252c-.025.15-.03.317-.013.503l.026.126.009.059.018.059.036.126.022.06.023.058c.079.175.169.321.273.442l.092.086.101.086.11.073.109.055.075.019.121-.237.112-.247.047-.125.048-.135.024-.067.023-.066.018-.068.019-.067.033-.14.034-.139.024-.139.014-.141.015-.138.006-.14v-.135l-.004-.075-.004-.068-.053-.261-.041-.122-.06-.104-.165-.154c-.054-.03-.128-.046-.22-.047-.086 0-.166.017-.24.053l-.204.124-.166.187zM40.155 18.57l-.029.298-.021.296-.011.301-.001.302c-.002.203.006.398.022.584l.022.144.022.144.081.262c.024.085.06.156.108.217l.073.064.037.026.037.019.046.009h.027999999999999997l.027.001.129-.009.24-.079.231-.151.214-.195c.136-.149.253-.308.354-.475.111-.167.207-.344.289-.528l.121-.278.057-.135.028-.07.014-.036.015-.036c.019-.054.06-.074.12-.062.056.024.072.06.054.107l-.019.081-.009.036-.01.035-.024.081-.023.071-.051.149-.052.146-.122.292-.14.281-.165.277-.19.27-.111.12-.12.12-.135.107-.153.099c-.104.063-.218.108-.341.132l-.185.025-.046-.001h-.054l-.11-.019-.11-.032-.101-.05-.083-.063-.073-.073c-.084-.09-.152-.195-.2-.314l-.063-.163-.054-.163-.036-.156-.036-.158-.026-.162-.018-.162-.013-.157-.012-.157-.016-.428.012-.417-.057.103-.055.104-.172.296-.183.294-.381.568c-.13.188-.272.368-.428.542l-.241.258-.278.232c-.111.077-.225.136-.342.177l-.05.014-.051.013-.028.004-.027.005h-.055l-.221-.02-.212-.1-.164-.146-.065-.09-.045-.091-.072-.18c-.042-.115-.072-.237-.089-.369l-.013-.181-.003-.179-.004-.185.015-.175.02-.175.029-.176.038-.175.047-.175.048-.176.057-.165.028-.086.028-.085.037-.081.038-.08.019-.045.019-.035.019-.041.019-.041.093-.169c.125-.216.267-.412.429-.592l.269-.253.296-.219.083-.052.083-.046.087-.049.088-.039.194-.062.203-.034.102-.014.11.005.22.056.193.118.137.163.082.181.027.09.027.09.017.18-.01.171-.055.054-.056-.036-.044-.162-.055-.153-.036-.067-.037-.067-.045-.055-.046-.055-.05-.045-.051-.036-.109-.036c-.073-.019-.16-.014-.258.015l-.129.044-.128.062-.064.04-.066.04-.059.04-.061.05-.237.204-.209.224-.194.255-.168.264-.037.067-.037.066-.015.037-.014.035-.019.035-.019.037-.027.071-.02.035-.018.037-.029.075-.027.076-.057.148-.047.148-.052.156-.042.157-.062.31-.044.311-.009.16-.001.154.008.147.026.149.04.135.06.117.082.091.092.055.06.018.06.01h.037l.027-.009.064-.009.138-.043.14-.072.13-.093.128-.102.122-.108.121-.116.111-.12.111-.129.214-.26c.131-.167.264-.349.4-.546l.191-.276.182-.287.177-.286.041-.081.042-.071.005-.053.005-.054c.014-.211.033-.417.06-.621l.087-.619.058-.306.058-.305.062-.307.071-.305.151-.605c.05-.2.11-.402.178-.605.139-.405.289-.798.451-1.175.094-.185.196-.373.308-.563l.094-.134.092-.135.046-.062.056-.063.055-.066.057-.059.13-.121.139-.102.167-.089.092-.036.092-.025h.128l.028.001.027.005.027.005.11.045.083.072.063.091.023.045.014.045.026.172-.001.171-.015.079-.005.082-.033.152-.034.153-.042.156-.042.148-.048.143-.028.077-.027.076-.211.578-.229.578c-.163.376-.331.752-.506 1.129l-.14.282-.139.274-.15.275-.149.278-.154.269-.163.27-.164.273-.172.263-.009.014-.009.014-.006.067-.011.069zm.166-1.201l-.009.062.102-.144.111-.143.177-.251.085-.129.083-.13.158-.261.159-.268.289-.533.271-.56.243-.56.217-.569.027-.072.028-.072.02-.076.028-.067.039-.147.037-.146.029-.149.02-.148.005-.144-.012-.145-.014-.062-.014-.063-.054-.082-.083-.026h-.055l-.019.008h-.029c-.074.03-.142.074-.203.133-.056.043-.114.111-.176.206l-.154.242-.135.26-.122.267-.114.278-.209.564-.184.574-.161.579-.142.586-.071.298-.062.296-.058.296-.048.298zM45.704 18.071l.038-.141.028-.138c.013-.096.011-.177-.008-.243l-.04-.108-.06-.091-.083-.072-.082-.055-.083-.018-.11.008-.125.03-.125.058-.134.071-.125.079-.259.196-.245.21-.236.237-.12.116-.057.053-.056.062-.111.121-.102.121-.21.259-.2.268-.371.547-.043.071-.05.071-.047.081-.019.081-.02.081-.07.246-.062.247-.132.484-.095.476-.009.009c-.013.072-.05.128-.112.17-.062.041-.129.056-.204.044-.073-.013-.131-.048-.174-.105-.042-.057-.06-.119-.055-.184l.01-.02h-.01l.106-.515.123-.499.071-.246.062-.247.034-.121.032-.121.028-.116.029-.126.228-.987.229-.986.247-.992c.082-.326.17-.653.266-.982l.146-.498.155-.488.089-.242.09-.242.028-.063.027-.053.02-.063.026-.063.058-.119.055-.112c.069-.149.153-.306.253-.467l.153-.219.182-.21.097-.093.115-.095.125-.079.143-.054.158-.025h.037l.047.01.092.027.073.045.031.032.033.032.031.076.032.068.027.135.007.135-.005.135-.015.135-.015.125-.024.126-.02.126-.01.035-.009.027-.019.062-.147.494-.173.483-.197.471-.215.471-.056.112-.057.111-.037.062-.028.054-.032.059-.033.058-.139.216-.141.215-.279.434-.279.425-.262.436-.25.442-.01.019-.113.542-.124.543.088-.139.088-.139.178-.282.186-.282.103-.138.103-.139.111-.134.103-.134.223-.256.24-.254.131-.12.139-.121c.104-.083.208-.151.307-.205l.175-.088.203-.062.231-.025.123.019.114.037c.092.031.163.069.211.118l.083.063.083.081.117.198.036.1.027.108.018.108v.106l-.028.198-.054.188-.07.171c-.05.113-.107.218-.177.312l-.214.287-.106.134-.116.125-.057.062-.037.035-.027.026-.13.126-.143.106-.145.106-.296.178-.323.142-.171.049-.18.029-.179.018-.18-.02-.176-.055c.11.162.229.315.356.461.152.181.326.344.521.488l.284.199c.092.056.192.102.303.138l.074.027.032.005.031.006.079.014.067.005.145.001.142-.026.153-.04.152-.065c.116-.047.219-.104.306-.169.092-.054.188-.124.286-.213l.139-.126.13-.124.257-.272.245-.282.274-.34.265-.339.073-.009.01.062-.229.367-.237.367-.213.309-.232.308c-.162.21-.335.403-.52.581l-.153.135-.172.124c-.117.089-.246.157-.388.204l-.222.053-.12.013-.119-.006-.12-.01-.119-.028-.11-.036-.051-.02-.051-.018c-.128-.06-.25-.134-.367-.218-.109-.079-.213-.169-.312-.272l-.137-.148-.127-.158-.109-.158-.101-.168-.045-.085-.045-.086-.038-.09-.035-.09-.073-.181-.054-.188.019-.056.047.002v.009c.104.055.205.086.302.092l.157-.003.157-.031c.098-.017.2-.052.305-.104l.143-.072.145-.079.135-.094.124-.094.124-.106.117-.116.055-.054.048-.062.026-.027.028-.025.022-.037.024-.035.186-.26.08-.14.07-.138.07-.144.051-.142zm-2.046-2.496l-.123.485-.114.492-.058.243-.047.242.612-.778.149-.2.149-.21.036-.051.039-.048.027-.054.037-.055.061-.106.061-.107c.168-.293.318-.598.448-.914.131-.305.244-.619.338-.941l.011-.062.009-.036.01-.027.014-.058.016-.059.014-.126.015-.125.002-.243-.045-.225-.054-.091-.065-.036-.027-.009-.027-.001h-.019l-.102.035-.175.115-.08.09-.069.09-.131.2-.111.211-.197.448-.093.233-.047.116-.02.062-.019.054-.085.233-.075.242-.141.475-.124.496zM49.128 21.062l-.111.12-.121.119-.134.108-.152.098-.088.036-.088.035-.051.013-.05.004-.02.004-.028.004h-.147l-.102-.02-.192-.081-.146-.136-.108-.163c-.05-.097-.089-.211-.119-.343l-.021-.166-.013-.167.002-.17.01-.162.035-.332.062-.323c.052-.228.11-.437.18-.628.068-.215.152-.419.253-.61.1-.209.212-.402.336-.581l.208-.264.248-.255.138-.115.148-.107c.104-.06.221-.113.351-.159.129-.035.266-.052.405-.051.143.013.275.04.404.083.123.049.236.109.34.182l.146.118.037.027.037.027.027.036.037.028c.054.047.081.108.081.184-.001.075-.029.141-.084.193-.05.053-.113.081-.19.084-.075.002-.143-.023-.197-.078l-.009-.01-.027-.026-.02-.026-.054-.047-.05-.04-.051-.041-.221-.137-.239-.055-.114.004-.115.021c-.086.017-.168.047-.245.093l-.227.154c-.142.12-.275.263-.399.43-.13.173-.239.343-.325.51l-.141.274-.122.281c-.08.203-.144.397-.188.583-.057.197-.094.396-.114.602l-.015.149-.006.147.004.143.012.145.083.27.062.104.082.086.102.046.119.019h.065l.032-.008.033-.01.129-.043.241-.151.221-.214.195-.237.188-.255.172-.26.162-.276.146-.273.145-.283.069-.144.071-.143.019-.049.019-.049.009-.037.02-.045.019-.045.015-.049.013-.049c.025-.072.073-.125.145-.157.071-.033.14-.037.208-.012.073.023.126.07.16.137.032.065.037.134.013.207v.009l-.021.04-.018.04-.029.089-.027.086-.028.086-.113.349-.086.354-.057.356-.015.175-.006.175.008.167.026.156c.022.097.065.178.127.244l.11.082.128.046.078.014.079.006h.07400000000000001l.009.001.032-.01.033-.009.069-.027.069-.034.069-.045.069-.054.135-.115.124-.135.121-.141.111-.146.21-.312.201-.322.093-.161.093-.161.177-.34.084-.027.036.082-.075.175-.075.175-.079.175-.08.175-.093.17-.093.169c-.05.108-.115.219-.196.332-.068.119-.143.228-.224.322l-.129.156-.14.146-.167.135-.203.116-.06.017-.061.008-.02.009h-.045l-.056.009-.229-.002-.116-.027-.114-.037c-.086-.036-.159-.081-.22-.136l-.082-.095-.074-.095-.059-.109-.04-.107c-.043-.132-.069-.273-.081-.423-.017-.12-.019-.255-.006-.404l.016-.198.024-.198.028-.188c-.037.106-.085.203-.14.286l-.149.286-.158.278-.182.276-.201.26zM62.322 13.803l.045.203.016.211-.011.206-.037.206c-.024.133-.07.261-.137.386-.049.113-.118.23-.208.35-.163.215-.354.402-.567.562-.104.083-.212.155-.324.218l-.351.172-.18.075-.18.067-.094.03-.095.032-.089.025-.046.009-.045.018c-.065.011-.128 0-.188-.033-.061-.033-.099-.083-.114-.148-.013-.067-.003-.128.027-.185.03-.056.077-.094.145-.111h.008l.082-.026.079-.026.086-.026.086-.026.16-.058.162-.066.306-.146.288-.174c.18-.131.345-.281.496-.455l.176-.269.124-.295c.034-.107.055-.212.055-.313l-.003-.163-.021-.162c-.034-.203-.126-.399-.273-.586-.147-.176-.33-.313-.543-.417-.196-.098-.424-.155-.679-.176l-.18-.011h-.18l-.183.016-.177.025-.349.075-.341.119c-.216.1-.422.216-.619.346l-.289.209-.261.236c-.174.172-.334.348-.479.526-.157.192-.295.385-.416.582-.259.406-.471.829-.636 1.272-.17.454-.296.908-.377 1.363l-.046.35-.03.352-.014.175-.006.175.003.176.012.175.029.342.056.343c.053.222.122.435.21.639l.155.294.19.267.111.127.119.108.13.104.138.095c.202.115.414.195.635.239l.339.055.09.001.045.009.045.001.18.002h.178l.18-.007.174-.019.184-.016c.233-.034.467-.087.7-.156l.337-.128.327-.146.311-.177.302-.205.273-.232.257-.249.096-.116.136-.174.131-.179.091-.122.1-.144.054-.08.018-.036.009-.017.009-.02.091-.025.035.036-.009.045-.005.013-.004.014-.01.018-.014.022-.013.023-.055.08-.045.071-.055.081-.094.121-.142.178-.136.175-.099.117c-.161.189-.343.358-.541.508-.191.154-.399.29-.62.409-.223.118-.45.218-.683.301l-.358.114-.359.088-.188.029-.178.03-.188.021-.188.013-.095.008-.094-.001-.046.01-.044-.002h-.099l-.385-.03c-.25-.025-.5-.097-.75-.211-.125-.055-.243-.122-.353-.2-.11-.079-.213-.167-.308-.263-.1-.098-.188-.199-.263-.308l-.206-.344c-.118-.222-.21-.472-.272-.748l-.07-.382-.042-.383c-.016-.265-.012-.521.011-.772.022-.252.059-.504.108-.755s.11-.498.184-.74.161-.479.266-.712c.102-.245.215-.472.335-.682.115-.209.247-.421.399-.635l.23-.305.247-.286.263-.271.287-.246c.391-.314.831-.555 1.321-.718.246-.082.487-.141.727-.176l.184-.016.184-.009.377.003.375.048c.125.019.246.05.367.093l.089.036.089.037.085.04.084.051c.125.066.232.142.321.227.101.091.187.195.258.316l.097.181.018.045.018.044.022.056.012.045zM62.49 20.617l-.005.014-.004.013.009-.017.009-.018.195-.391.194-.381.206-.384.222-.367.108-.189.063-.094.053-.094.124-.179.131-.179.127-.174.134-.175.29-.341c.096-.112.204-.219.324-.32.114-.102.243-.192.387-.276l.108-.053.116-.044.126-.039.125-.031.067-.004.067-.004h.081l.091.01.098.027.049.02.049.027.089.08.072.082.039.09.03.09.026.153-.002.27-.019.12-.02.114-.028.116-.027.108-.137.43-.073.202-.082.201-.155.403-.154.404-.15.394-.132.404c-.051.137-.084.266-.102.386l-.016.098-.004.09.017.153.009.027.009.018.026.028.022.005.032.003.018.01h.054000000000000006l.081-.012.08-.022.181-.08.171-.103.162-.128.157-.134.148-.144.298-.308.28-.326.135-.161.127-.171.189-.263.181-.265.063-.008.008.062-.126.215-.153.243-.159.24-.141.206-.253.357-.28.331-.148.171-.158.15-.166.146-.186.139-.216.115-.116.036-.134.033h-.137l-.08-.01-.08-.027-.143-.109-.049-.068-.039-.076-.034-.135-.017-.135v-.121l.009-.121.038-.229.037-.22.055-.215.065-.217.06-.206.068-.206.137-.408.128-.407.068-.206.06-.207.056-.197.055-.197.024-.099.013-.099.023-.096.015-.093.004-.085-.003-.077-.009-.054v-.027h-.046l-.08.008-.161.026-.18.053-.166.074-.175.095-.172.11-.162.121-.157.143-.149.143-.287.312-.131.16-.131.171-.063.085-.064.084-.059.09-.059.09-.24.356-.221.359-.214.376-.204.376-.104.193-.096.191-.026.071-.057.234-.027.116-.014.062-.004.054v.011c-.013.064-.05.116-.109.155-.061.038-.126.052-.198.039-.064-.013-.118-.046-.159-.101-.042-.054-.057-.114-.044-.18l.014-.071.005-.062.028-.127.02-.124.025-.127.049-.251.045-.251.053-.247.05-.247.056-.246.046-.247.223-.992c.073-.326.154-.653.239-.982l.116-.499.124-.488.068-.247.061-.246.138-.485.142-.492.152-.485c.042-.161.098-.324.164-.493l.027-.062.027-.062.046-.116.054-.117.055-.126.244-.457.074-.116.081-.105.079-.108.047-.049.045-.049c.06-.072.133-.135.216-.188l.131-.08.139-.053.071-.019.081.001h.046l.046.001.089.036.079.055.027.036.026.036.053.145.018.067.008.067.004.067.004.067-.004.135-.016.136-.015.125-.022.126-.009.068-.018.057-.007.032-.004.031-.019.062-.143.494-.169.484-.191.47-.209.471-.055.112-.054.112-.026.062-.037.054-.032.054-.032.063-.063.106-.062.108-.137.215-.271.434-.263.425-.136.224-.06.108-.068.106-.122.216-.113.224-.046.062-.143.642-.144.642-.221.993zm1.006-4.433l-.055.247-.056.247-.051.211-.049.211.278-.358.271-.357.299-.401.031-.054.032-.045.036-.055.026-.054.063-.106.063-.108.223-.447.206-.457.182-.471.146-.479.019-.063.004-.027.005-.027.014-.062.014-.062.029-.243.004-.059.005-.059-.003-.062-.004-.062-.018-.116-.026-.109-.044-.081-.054-.046h-.035l-.018-.001h-.02l-.089.027-.162.115-.145.17-.126.201-.11.211-.189.448-.047.116-.045.107-.041.121-.04.112-.08.233-.068.242-.133.479-.123.489-.119.484zM68.969 21.192l-.109.121-.116.12-.132.107-.147.099-.086.035-.085.034-.049.014-.049.005-.019.004-.026.004h-.14400000000000002l-.099-.02-.188-.082-.142-.135-.107-.164c-.046-.097-.085-.21-.113-.343l-.022-.166-.012-.166.002-.172.01-.161.033-.332.061-.323c.051-.228.107-.436.175-.628.066-.215.149-.418.246-.61.097-.208.206-.402.326-.581l.204-.264.238-.255.136-.115.143-.106c.102-.061.217-.113.342-.16.126-.035.258-.053.396-.051.137.013.267.04.393.083.119.05.229.109.33.182l.144.119.034.026.036.027.025.036.036.027c.054.048.08.109.079.185 0 .076-.027.14-.081.192-.049.055-.11.082-.184.085-.075.003-.139-.023-.193-.077l-.007-.01-.028-.026-.02-.026-.053-.047-.049-.04-.049-.041-.215-.137-.231-.056-.113.005-.109.021c-.084.017-.165.048-.239.093l-.221.155c-.139.119-.267.263-.389.429-.126.173-.231.344-.314.511l-.139.272-.117.283c-.079.203-.141.397-.183.583-.056.196-.093.396-.113.602l-.014.148-.004.148.002.143.012.145.08.27.061.104.08.085.099.047.117.019h.062l.032-.008.029-.01.127-.044.234-.15.217-.215.188-.237.182-.255.166-.26.159-.276.143-.274.139-.282.069-.143.068-.144.019-.049.017-.05.011-.036.017-.044.02-.046.014-.049.014-.05c.024-.071.071-.123.141-.155.069-.033.136-.037.2-.013.071.024.124.069.156.137.032.065.035.135.012.206v.009l-.019.04-.018.041-.028.09-.026.084-.028.086-.109.35-.083.354-.057.355-.015.175-.006.175.008.167.024.157c.024.096.065.178.125.243l.107.082.125.047.075.013.077.005h.08099999999999999l.031-.008.031-.008.067-.028.068-.034.067-.045.067-.054.13-.115.121-.134.118-.143.109-.144.203-.313.195-.323.09-.16.09-.162.173-.339.081-.027.036.082-.073.174-.074.176-.076.174-.078.175-.09.17-.091.171c-.049.107-.112.218-.191.331-.065.119-.139.227-.216.322l-.127.156-.135.146-.161.135-.199.115-.058.018-.06.009-.018.009h-.018l-.027-.001-.054.009-.224-.002-.112-.027-.11-.037-.215-.136-.079-.095-.072-.095-.057-.109-.039-.107c-.041-.132-.067-.273-.078-.424-.018-.119-.019-.254-.005-.404l.015-.197.022-.198.028-.188c-.037.108-.082.204-.136.287l-.146.287-.155.278-.175.276-.192.257zM72.826 18.677l-.01.12-.001.122-.011.301-.001.302.015.301.024.292.019.144.024.145.036.14.033.141.041.134.057.127.133.226.178.162c.054.043.124.074.214.092l.125.01.059.001.067-.009.242-.071.117-.061.106-.08.109-.094.107-.104c.12-.138.237-.294.354-.474l.149-.26.14-.277.119-.277.063-.145.027-.071.018-.072c.025-.059.064-.076.118-.053.053.013.075.048.062.108l-.019.081-.027.071-.018.076-.028.077-.109.294-.118.298-.136.286-.173.277-.189.268-.108.126-.128.116c-.07.07-.163.139-.278.204-.114.06-.227.101-.34.124l-.095.018-.095.008-.094-.006-.093-.005c-.126-.019-.245-.061-.358-.128-.112-.061-.211-.14-.293-.235-.09-.097-.157-.195-.204-.298l-.079-.153-.062-.163-.106-.315-.03-.161-.029-.163-.048-.323-.019-.324-.017-.323.012-.323.035-.634.073-.634.041-.314.052-.313.06-.311.07-.31.073-.327.084-.328-3.717.047c-.071.005-.134-.019-.188-.069s-.079-.115-.079-.193c-.006-.078.017-.143.068-.193.053-.05.116-.078.193-.083h.009l3.822.106.033-.089.031-.089.21-.605c.073-.201.152-.396.236-.588.086-.186.185-.377.3-.573l.181-.272.208-.254c.072-.09.152-.171.243-.242l.076-.054.076-.043.171-.081.095-.025.094-.01h.047l.008.001.027.005.026.005.107.036.098.073.062.081.062.189.008.085v.085l-.006.082-.005.081-.055.322-.043.153-.041.151-.022.077-.023.076-.027.077-.019.075-.21.588-.228.577-.027.076-.027.067 3.929.108c.061.002.091.031.09.091-.012.054-.043.081-.091.08l-4.063.053-.151.341-.158.34-.269.564-.295.556-.149.281-.159.273-.167.272-.168.273-.031.031-.032.032zm.523-2.954c-.073.263-.138.524-.193.78l-.064.301-.056.3-.057.301-.046.302v.027l.147-.201.149-.21c.12-.168.233-.337.336-.511l.308-.538.154-.273.145-.29-.823.012zm.11-.405l-.009.036.876.024.051-.107.049-.108.242-.573.215-.573.045-.147.047-.148.033-.148.031-.149.027-.146.011-.148.001-.144-.009-.077-.017-.067-.045-.108-.026-.026-.036-.019-.089-.001-.108.035-.198.16-.085.104-.086.12-.041.059-.041.067-.036.058-.036.067-.068.126-.067.134-.123.272-.113.283c-.079.185-.15.376-.215.569l-.18.575zM78.675 18.295l.038-.14.027-.138c.013-.097.011-.178-.008-.244l-.038-.107-.059-.091-.08-.072-.08-.055-.08-.019-.108.009-.121.03-.121.058-.13.071-.12.079-.252.196-.24.21-.23.236-.117.117-.054.053-.054.062-.108.121-.1.12-.202.258-.195.269-.363.547-.039.071-.051.071-.045.081-.019.08-.019.082-.068.246-.06.246-.131.485-.09.476-.011.009c-.012.072-.048.129-.107.17-.062.041-.126.056-.198.043-.071-.012-.128-.047-.169-.104-.041-.058-.06-.119-.052-.184l.008-.02h-.008l.101-.516.12-.498.069-.247.06-.247.032-.121.032-.121.028-.116.027-.125.222-.988.222-.986.24-.991c.079-.327.166-.654.257-.983l.143-.498.151-.488.087-.242.086-.243.027-.062.027-.054.019-.062.027-.062.055-.12.054-.113c.067-.148.149-.305.245-.466l.15-.219.175-.21.096-.094.112-.094.121-.08.139-.053.153-.026h.036000000000000004l.045.011.09.026.071.045.029.033.032.031.031.076.031.069.026.135.008.134-.007.136-.015.134-.013.125-.024.127-.018.126-.01.035-.01.027-.018.062-.143.493-.168.483-.192.471-.208.471-.056.112-.055.111-.036.063-.024.056-.031.059-.031.058-.136.216-.136.214-.272.436-.272.424-.253.435-.244.442-.011.02-.11.542-.121.543.087-.139.086-.139.173-.282.18-.282.101-.138.099-.139.108-.135.101-.134.216-.255.234-.254.126-.121.135-.12.299-.205.17-.089.196-.062.224-.025.122.02.111.037c.091.03.158.069.205.117l.08.064.081.081.114.198.035.099.026.108.017.108v.107l-.029.197-.051.188-.067.171c-.049.113-.107.218-.171.313l-.209.286-.104.134-.111.126-.056.062-.035.036-.028.026-.125.125-.141.107-.139.106-.288.178-.314.142-.166.049-.175.029-.175.017-.174-.019-.171-.055c.107.161.222.315.347.461.148.181.316.344.507.488l.277.199c.087.056.187.102.293.138l.071.027.032.005.031.006.076.014.066.004.138.001.141-.025.146-.04.149-.065c.113-.048.213-.104.296-.169.09-.054.185-.125.28-.215l.135-.124.126-.125.248-.273.239-.28.267-.341.258-.34.07-.008.01.062-.223.368-.23.365-.208.31-.227.309c-.156.208-.324.402-.505.581l-.148.134-.167.124c-.114.089-.239.157-.377.205l-.216.052-.116.013-.116-.005-.116-.01-.116-.028-.108-.036-.048-.019-.049-.019c-.125-.061-.244-.134-.356-.219-.107-.078-.208-.168-.303-.271l-.134-.149-.123-.158-.107-.158-.097-.167-.045-.086-.044-.085-.035-.09-.036-.09-.069-.181-.053-.188.019-.055h.045v.01c.101.055.199.085.295.092l.15-.004.153-.03c.096-.018.195-.053.296-.104l.141-.072.14-.08.13-.093.122-.094.121-.106.111-.116.056-.054.045-.062.026-.027.028-.026.022-.036.021-.036.181-.26.077-.139.069-.139.067-.143.049-.144zm-1.988-2.495l-.119.484-.111.493-.055.244-.047.241.598-.778.145-.2.144-.211.036-.05.037-.049.026-.054.037-.054.059-.106.06-.107c.162-.293.308-.598.435-.914.128-.305.238-.618.33-.941l.008-.063.011-.036.009-.026.015-.058.014-.059.013-.126.016-.126.002-.243-.043-.225-.055-.091-.062-.036-.027-.009h-.044000000000000004l-.098.034-.172.117-.076.089-.073.089-.126.201-.109.211c-.066.138-.131.286-.19.448l-.092.233-.045.116-.02.062-.017.054-.083.233-.074.242-.137.475-.12.496zM82.004 21.284l-.109.121-.117.12-.13.106-.148.099-.086.035-.084.035-.051.013-.05.005-.018.005-.027.004h-.044000000000000004l-.099-.001-.098-.02-.188-.081-.143-.136-.106-.163c-.047-.097-.084-.21-.113-.342l-.021-.168-.013-.165.001-.172.011-.161.034-.332.059-.323c.05-.228.108-.437.176-.628.067-.215.148-.418.245-.61.097-.209.206-.403.328-.581l.201-.265.24-.254.135-.116.145-.106c.102-.061.215-.112.34-.16.127-.034.257-.052.396-.051.137.013.268.04.393.083.12.05.23.11.331.183l.142.118.036.027.035.026.026.037.037.027c.052.048.079.109.078.185s-.028.139-.082.192c-.048.053-.109.081-.184.084s-.139-.023-.192-.076l-.008-.01-.028-.027-.017-.028-.053-.045-.051-.04-.048-.041-.214-.137-.232-.056-.112.005-.112.021-.237.094-.222.154c-.137.119-.266.263-.387.43-.126.173-.232.343-.316.509l-.137.274-.119.283c-.079.202-.141.397-.182.581-.056.198-.094.398-.112.603l-.015.148-.006.148.003.144.013.145.079.27.062.104.079.086.099.046.116.02h.063l.031-.009.031-.01.126-.044.233-.15.217-.215.189-.236.182-.255.167-.26.158-.278.142-.273.14-.281.069-.143.066-.145.019-.049.02-.05.009-.035.02-.044.017-.046.015-.05.013-.048c.025-.073.072-.124.141-.156.069-.034.136-.037.201-.014.071.025.123.07.156.137.032.065.036.135.012.207v.009l-.019.04-.019.04-.027.09-.027.085-.027.086-.109.35-.083.354-.057.356-.016.174-.005.176.008.166.025.157c.024.097.065.178.124.244l.106.081.125.047.076.013.076.006h.079l.032-.008.031-.009.068-.028.066-.034.067-.044.068-.054.131-.116.12-.134.118-.143.108-.144.204-.313.194-.322.091-.161.089-.161.174-.34.081-.027.035.082-.073.175-.072.175-.077.175-.078.174-.09.171-.091.17c-.049.107-.113.218-.19.331-.067.12-.139.228-.217.323l-.127.155-.136.147-.161.134-.198.116-.06.017-.058.009-.018.009h-.045l-.053.009-.225-.002-.112-.027-.112-.038-.212-.135-.08-.095-.071-.095-.057-.109-.04-.107c-.042-.133-.067-.273-.078-.424-.018-.12-.02-.255-.006-.404l.016-.198.022-.197.027-.188c-.036.107-.081.203-.135.287l-.146.286-.153.278-.178.276-.189.256zM8.601 10.262s.422.146.851.151c.428.005.887-.132.887-.132l.008-.845-1.739-.019-.007.845zM10.34 9.149l-.851-.878-.868.859zM9.497 6.926l-1.768 1.756-.022 2.278s.85.295 1.714.304c.863.01 1.79-.266 1.79-.266l.021-2.277-1.735-1.795zm1.442 3.802s-.781.233-1.51.225c-.729-.008-1.447-.257-1.447-.257l.018-1.765 1.493-1.481 1.464 1.514-.018 1.764z"/><ellipse cx="9.947" cy="21.583" rx=".292" ry=".308"/><path d="M12.2 3.865c.627-.052.63-.759.101-1.002-.081-.037-.184.023-.157.12.179.635 1.361.695 1.39-.062.02-.509-.823-1.638-1.341-.978-.157.201.101.483.23.616.266.272.678.38 1.05.326 1.074-.157 1.514-1.259 1.657-2.213.02-.134-.185-.192-.205-.056-.125.835-.455 1.809-1.365 2.043-.445.115-1.006-.088-1.191-.531.233-.153.444-.132.632.063.095.083.172.182.231.294.381.627-.676 1.181-.883.44l-.156.12c.293.095.296.297.006.606-.136.012-.137.224.001.214zM15.266 20.717c.613 1.503-.756 2.104-3.219 2.33l.135-4.779c0-.172-.139-.31-.31-.31h-4.252c-.153 0-.279.11-.304.257l-.002.007h-.003v.028l-.003.039.003 4.587c-1.223-.111-1.958-.219-2.894-.519-.343-1.112-1.358-4.552-1.358-4.552l.705 4.315-.071-.03-1.663-5.254.757 4.128c-.399.318-.529.696-.513 1.01.052.966 2.233 1.82 5.509 1.967l.006-.041v-5.477l3.055.735-.113 4.827.043-.016c3.583.101 5.333-1.132 5.379-1.992.019-.372-.297-.914-.887-1.26zM14.907 5.22c.003-.333-.722-.638-1.868-.851-.095.578-.568 1.015-1.135 1.008-.63-.007-1.137-.559-1.129-1.232l.002-.035c-.435-.026-.889-.042-1.358-.045-3.036-.022-5.5.457-5.504 1.072-.113.159.781 2.98.878 2.888.652-.618.52.356 1.087.414.407.041.393-.529 1.012.043.599.554.93.079 1.153-.009.111-.029.141-.263.247-.176l1.112-1.251s1.503 1.621 1.686 1.716c.411.212.741-1.183 1.992-.353.471.312.508-.536.931-.688.586-.211-.322 1.583.096 1.588-.001.001.87-2.976.798-4.089zm-5.537 1.578c-1.838-.054-3.97-.545-4.952-1.223.949.376 2.988.844 4.982.858 1.993.015 4.055-.421 4.991-.782-.884.628-2.865 1.21-5.021 1.147zM18.279 12.099c.006-.831-1.827-1.568-4.543-1.969l-.304 1.524h-.005l.003.028c-.005.558-1.83.998-4.076.98-1.691-.013-3.138-.281-3.75-.649-.304-1.201-.736-3.473-.736-3.473l-.011 1.545c-2.603.36-4.364 1.045-4.417 1.846l-.002-.009c-.094.567.709 3.316.709 3.316-.014-.104.267-.27.473-.033.488.558.871 1.423 1.676.977.483-.267 1.078-.291 1.327.077.516.769-.122 1.595 0 2.246.137.551.911.39.887-.041-.042-.747-.479-1.225-.09-1.916.223-.415 1.148-.575 1.483-.253.227.219.799.736 1.317.393 1.604-1.064 2.308.336 3.25.344 1.097.008.919-.945 2.037-.938.569.004.594 1.117 1.347 1.07.614-.038.895-1.088 1.177-1.501.321-.468.691-.174.742-.033.108.298-.156.896-.36 2.218-.105.681-.119 1.238.071 1.083.13-.105 1.735-5.944 1.796-6.816l-.003.006.002-.022zm-9.001 2.598c-4.842-.045-7.338-1.303-8.157-2.494 1.122.91 4.218 2.016 8.221 2.045 3.482.026 6.788-1.013 8.262-1.725-.959 1.231-5.217 2.204-8.326 2.174z"/></g></svg>